<svg xmlns="http://www.w3.org/2000/svg" xmlns:xlink="http://www.w3.org/1999/xlink" version="1.1" x="0px" y="0px" viewBox="-255 347 100 125" style="enable-background:new -255 347 100 100;" xml:space="preserve"><path d="M-165.5159302,373.2075195h-78.9681396c-1.4112549,0-2.5552979,1.144043-2.5552979,2.5552979v42.4743652  c0,1.4112549,1.144043,2.5552979,2.5552979,2.5552979h78.9681396c1.4112549,0,2.5552979-1.144043,2.5552979-2.5552979v-42.4743652  C-162.9606323,374.3515625-164.1046753,373.2075195-165.5159302,373.2075195z M-243.0065308,418.541687  c-0.8237305,0-1.4915161-0.6677856-1.4915161-1.4915161v-40.1003418c0-0.8237305,0.6677856-1.4915161,1.4915161-1.4915161  h14.6448364v43.083374H-243.0065308z M-225.5248413,418.541687v-43.083374h18.737854v43.083374H-225.5248413z   M-203.9501343,418.541687v-43.083374h18.737793v43.083374H-203.9501343z M-165.5019531,417.0501709  c0,0.8237305-0.6677856,1.4915161-1.4915161,1.4915161h-15.381958v-43.083374h15.381958  c0.8237305,0,1.4915161,0.6677856,1.4915161,1.4915161V417.0501709z"/><rect x="-241.8333282" y="379.1666565" width="10.333333" height="7.5"/><rect x="-241.8333282" y="389.1666565" width="10.333333" height="7.5"/><rect x="-220.8333282" y="379.1666565" width="10.333333" height="7.5"/><rect x="-220.8333282" y="389.1666565" width="10.333333" height="7.5"/><rect x="-199.8333282" y="379.1666565" width="10.333333" height="7.5"/><rect x="-178.8333282" y="379.1666565" width="10.333333" height="7.5"/><rect x="-199.8333282" y="389.1666565" width="10.333333" height="7.5"/><rect x="-199.8333282" y="399.1666565" width="10.333333" height="7.5"/><rect x="-199.8333282" y="409.1666565" width="10.333333" height="7.5"/><rect x="-241.8333282" y="399.1666565" width="10.333333" height="7.5"/><text x="-255" y="462" fill="#000000" font-size="5px" font-weight="bold" font-family="'Helvetica Neue', Helvetica, Arial-Unicode, Arial, Sans-serif">Created by Akheela</text><text x="-255" y="467" fill="#000000" font-size="5px" font-weight="bold" font-family="'Helvetica Neue', Helvetica, Arial-Unicode, Arial, Sans-serif">from the Noun Project</text></svg>